<?xml version="1.0" encoding="UTF-8" standalone="no"?>
<!-- Uploaded to: SVG Repo, www.svgrepo.com, Generator: SVG Repo Mixer Tools -->

<svg
   width="800"
   height="800"
   viewBox="0 0 24 24"
   fill="none"
   version="1.1"
   id="svg10717"
   xmlns="http://www.w3.org/2000/svg"
   xmlns:svg="http://www.w3.org/2000/svg">
  <defs
     id="defs10721">
    <clipPath
       clipPathUnits="userSpaceOnUse"
       id="clipPath18498-9">
      <rect
         style="fill:#1c274c;fill-opacity:1;stroke-width:0.03"
         id="rect18500-5"
         width="16.301888"
         height="16.301888"
         x="6.9735851"
         y="3.8037734"
         ry="0.68199539" />
    </clipPath>
  </defs>
  <rect
     style="fill:#1e1e2e;fill-opacity:1;stroke-width:0.03"
     id="rect21430"
     width="24"
     height="24"
     x="0"
     y="0"
     ry="0.68199539" />
  <g
     id="g16314"
     clip-path="url(#clipPath18498-9)"
     transform="matrix(1.3540272,0,0,1.3540272,-8.4790235,-3.2236124)"
     style="fill:#89b4fa;fill-opacity:1">
    <path
       d="m 10.822641,29.141882 c 0,0.662723 0.537282,1.200004 1.200004,1.200004 0.662723,0 1.200004,-0.537281 1.200004,-1.200004 z M 21.622677,13.141829 22.47116,13.99036 c 0.468641,-0.468626 0.468641,-1.228437 0,-1.697061 z M 20.071152,9.89329 c -0.468642,-0.468625 -1.228325,-0.468625 -1.696967,0 -0.468642,0.468625 -0.468642,1.228436 0,1.697062 z m -1.696967,4.800016 c -0.468642,0.468626 -0.468642,1.228435 0,1.697012 0.468642,0.468642 1.228325,0.468642 1.696967,0 z M 13.222649,29.141882 V 19.54185 h -2.400008 v 9.600032 z m 5.200017,-14.800049 h 3.200011 v -2.400008 h -3.200011 z m 4.048494,-2.048534 -2.400008,-2.400009 -1.696967,1.697062 2.400008,2.400008 z m -1.696967,0 -2.400008,2.400007 1.696967,1.697012 2.400008,-2.399958 z m -7.551544,7.248551 c 0,-2.871851 2.328167,-5.200017 5.200017,-5.200017 v -2.400008 c -4.197454,0 -7.600025,3.40265 -7.600025,7.600025 z"
       fill="#1c274c"
       id="path10711"
       style="fill:#89b4fa;fill-opacity:1;stroke-width:1.6" />
    <path
       d="m 12.181152,6.6981069 0.667397,-1.6182963 c -0.468626,-0.468641 -1.228437,-0.468641 -1.697061,0 z M 8.7514801,7.4798185 c -0.468626,0.468642 -0.468626,1.2283245 0,1.6969665 0.4686249,0.4686429 1.2284359,0.4686429 1.6970619,0 z M 13.551495,9.176785 c 0.468626,0.4686429 1.228435,0.4686429 1.697012,0 0.468643,-0.468642 0.468643,-1.2283245 0,-1.6969665 z M 13.200022,9.128304 V 5.9282936 H 10.800015 V 9.128304 Z M 11.151488,5.0798106 8.7514801,7.4798185 10.448542,9.176785 12.848549,6.7767775 Z m 0,1.6969669 2.400007,2.4000075 1.697012,-1.6969665 -2.399958,-2.4000079 z"
       fill="#1c274c"
       id="path10711-4"
       style="fill:#89b4fa;fill-opacity:1;stroke-width:1.6" />
    <rect
       style="fill:#89b4fa;fill-opacity:1;stroke-width:0.03"
       id="rect11903"
       width="2.4193296"
       height="17.703773"
       x="10.803319"
       y="8.6499624"
       ry="0.68199539" />
  </g>
</svg>
